<svg height="512pt" viewBox="-76 0 512 512" width="512pt" xmlns="http://www.w3.org/2000/svg"><path d="m180 0c-66.300781 0-120 54.699219-120 121s53.699219 120 120 120 120-53.699219 120-120-53.699219-121-120-121zm0 0" fill="#ff7816"/><path d="m180 271c-99.300781 0-180 80.699219-180 180v61h360v-61c0-99.300781-80.699219-180-180-180zm0 0" fill="#ff7816"/><path d="m180 241v-241c66.300781 0 120 54.699219 120 121s-53.699219 120-120 120zm0 0" fill="#dd3400"/><path d="m360 451v61h-180v-241c99.300781 0 180 80.699219 180 180zm0 0" fill="#dd3400"/><path d="m201.300781 121 34.199219 34.5-21 21-34.5-34.199219-34.5 34.199219-21-21 34.199219-34.5-34.199219-34.5 21-21 34.5 34.199219 34.5-34.199219 21 21zm0 0" fill="#ede9e8"/><path d="m201.300781 121 34.199219 34.5-21 21-34.5-34.199219v-42.601562l34.5-34.199219 21 21zm0 0" fill="#d2c5c2"/></svg>