<svg height="512pt" viewBox="0 0 512 512" width="512pt" xmlns="http://www.w3.org/2000/svg"><path d="m391 256v211h-270v-211c0-74.402344 60.601562-135 135-135s135 60.597656 135 135zm0 0" fill="#ff9f00"/><path d="m391 256v211h-135v-346c74.398438 0 135 60.597656 135 135zm0 0" fill="#ff7816"/><path d="m241 211h30v90h-30zm0 0" fill="#5a5a5a"/><path d="m241 331h30v30h-30zm0 0" fill="#5a5a5a"/><path d="m0 241h61v30h-61zm0 0" fill="#fdbf00"/><path d="m451 241h61v30h-61zm0 0" fill="#ff9f00"/><path d="m425.699219 65.082031 21.210937 21.210938-42.421875 42.421875-21.210937-21.210938zm0 0" fill="#ff9f00"/><path d="m86.296875 65.085938 42.421875 42.421874-21.210938 21.210938-42.421874-42.421875zm0 0" fill="#fdbf00"/><path d="m241 0h30v61h-30zm0 0" fill="#fdbf00"/><path d="m256 0h15v61h-15zm0 0" fill="#ff9f00"/><path d="m256 211h15v90h-15zm0 0" fill="#444"/><path d="m256 331h15v30h-15zm0 0" fill="#444"/><path d="m421 482v30h-330v-30c0-16.5 13.5-30 30-30h270c16.5 0 30 13.5 30 30zm0 0" fill="#5a5a5a"/><path d="m421 482v30h-165v-60h135c16.5 0 30 13.5 30 30zm0 0" fill="#444"/></svg>