<svg height="512pt" viewBox="0 0 512 512" width="512pt" xmlns="http://www.w3.org/2000/svg"><path d="m497.601562 188.800781c-35.402343-97.203125-128.5-158.800781-226.601562-158.800781-27.300781 0-55.199219 4.5-82.199219 14.398438-124.199219 45.300781-189.703125 184.300781-144.402343 308.800781 35.402343 97.199219 128.5 158.800781 226.601562 158.800781h.300781c27 0 54.898438-5.5 81.898438-15.402344 97.199219-35.398437 158.800781-127.796875 158.800781-225.898437 0-27.300781-4.5-54.898438-14.398438-81.898438zm-154.902343 280.597657c-23.699219 8.703124-48 12.601562-71.699219 12.601562-85.800781 0-167.5-54.101562-198.402344-139.300781-39.597656-108.601563 17.800782-230.5 126.703125-270.101563 23.398438-8.398437 47.699219-12.597656 71.398438-12.597656h.300781c42.898438 0 85.300781 13.199219 120.097656 37.199219 34.800782 24 62.703125 59.5 78.300782 102.101562 39.601562 108.597657-17.796876 230.5-126.699219 270.097657zm0 0" fill="#ff7816"/><path d="m512 270.699219c0 98.101562-61.601562 190.5-158.800781 225.898437-27 9.902344-54.898438 15.402344-81.898438 15.402344h-.300781v-30c23.699219 0 48-3.898438 71.699219-12.601562 108.902343-39.597657 166.300781-161.5 126.699219-270.097657-15.597657-42.601562-43.5-78.101562-78.300782-102.101562-34.796875-24-77.199218-37.199219-120.097656-37.199219v-30c98.101562 0 191.199219 61.597656 226.601562 158.800781 9.898438 27 14.398438 54.597657 14.398438 81.898438zm0 0" fill="#ff4b00"/><path d="m67.867188 373.523438-67.867188-33.238282 12.6875-27.183594 40.675781 20.550782 20.550781-44.078125 27.191407 12.6875zm0 0" fill="#ff7816"/><path d="m438.816406 475.726562-4.234375-48.457031-48.457031 4.25-2.605469-29.882812 78.339844-6.859375 6.839844 78.339844zm0 0" fill="#ff4b00"/><path d="m328.378906 108.105469-45.105468-64.410157 64.425781-43.695312 17.195312 24.578125-39.839843 26.472656 27.902343 39.855469zm0 0" fill="#ff4b00"/><path d="m271 256c-49.5 0-90 40.5-90 90v30h180v-30c0-49.5-40.5-90-90-90zm0 0" fill="#73bcff"/><path d="m361 346v30h-90v-120c49.5 0 90 40.5 90 90zm0 0" fill="#0095ff"/><path d="m271 136c-33 0-60 27-60 60s27 60 60 60 60-27 60-60-27-60-60-60zm0 0" fill="#73bcff"/><path d="m271 256v-120c33 0 60 27 60 60s-27 60-60 60zm0 0" fill="#0095ff"/></svg>