<?xml version="1.0" standalone="no"?>
<!DOCTYPE svg PUBLIC "-//W3C//DTD SVG 20010904//EN"
 "http://www.w3.org/TR/2001/REC-SVG-20010904/DTD/svg10.dtd">
<svg version="1.0" xmlns="http://www.w3.org/2000/svg"
 width="1023.000000pt" height="1023.000000pt" viewBox="0 0 1023.000000 1023.000000"
 preserveAspectRatio="xMidYMid meet">
<metadata>
Created by potrace 1.15, written by Peter Selinger 2001-2017
</metadata>
<g transform="translate(0.000000,1023.000000) scale(0.100000,-0.100000)"
fill="#FFFFFF" stroke="none">
<path d="M4775 10199 c-27 -4 -104 -13 -170 -19 -253 -24 -630 -93 -845 -156
-206 -61 -251 -75 -355 -113 -186 -67 -333 -129 -492 -206 -141 -68 -415 -216
-473 -255 -14 -9 -68 -45 -120 -80 -102 -67 -295 -207 -372 -268 -117 -93
-162 -133 -293 -252 -77 -71 -154 -144 -170 -162 -16 -18 -75 -82 -131 -143
-362 -391 -684 -889 -906 -1405 -273 -632 -418 -1334 -418 -2015 0 -115 5
-259 10 -320 35 -372 33 -357 81 -617 286 -1558 1313 -2910 2744 -3613 710
-349 1462 -525 2238 -525 781 0 1518 169 2225 511 1299 628 2274 1792 2667
3183 25 88 52 193 61 235 9 42 20 92 24 111 37 168 90 535 90 626 0 82 -78
115 -234 98 -44 -5 -351 -9 -681 -9 l-600 0 -3 35 c-2 19 -8 41 -14 47 -7 9
-7 13 0 13 7 0 11 63 12 182 0 101 4 186 9 191 4 4 317 7 696 7 l687 0 53 25
c78 38 98 61 91 99 -4 17 -11 83 -16 146 -19 232 -59 491 -105 688 -8 34 -22
92 -31 130 -94 396 -289 882 -511 1272 -307 540 -742 1052 -1218 1435 -144
116 -198 156 -370 272 -243 166 -638 376 -915 486 -450 180 -907 295 -1363
342 -84 8 -182 20 -220 25 -79 12 -589 11 -662 -1z m1025 -393 c47 -9 119 -25
160 -37 41 -11 104 -27 140 -35 36 -9 70 -17 75 -18 6 -2 28 -6 50 -11 22 -4
54 -14 70 -21 17 -7 33 -13 37 -13 11 -2 63 -60 228 -256 78 -93 157 -184 174
-201 17 -17 53 -59 80 -93 27 -34 74 -90 105 -125 31 -35 85 -98 121 -141 36
-43 91 -108 122 -144 363 -421 541 -639 533 -651 -4 -6 -105 -10 -271 -10
-280 0 -308 4 -348 49 -11 11 -25 21 -31 21 -7 0 -32 15 -56 34 -42 32 -127
76 -147 76 -5 0 -17 9 -28 21 -10 11 -52 36 -94 55 -41 19 -84 40 -95 46 -55
31 -159 78 -235 107 -47 18 -94 37 -105 41 -25 10 -142 45 -215 64 -73 19
-110 34 -110 44 0 5 7 29 16 54 13 40 15 111 12 520 -3 536 -2 524 -81 566
-64 33 -188 41 -687 44 -401 2 -451 0 -503 -16 -42 -13 -64 -27 -83 -51 -52
-69 -54 -91 -54 -586 0 -295 4 -460 10 -464 20 -12 -9 -45 -40 -45 -16 0 -31
-4 -34 -9 -3 -4 -36 -11 -73 -15 -37 -4 -86 -13 -108 -20 -49 -17 -161 -45
-236 -59 -53 -10 -61 -8 -114 17 -31 16 -90 50 -130 77 -40 27 -78 49 -85 49
-16 0 -77 37 -107 63 -13 11 -23 18 -23 14 0 -4 -15 2 -32 13 -18 11 -55 31
-83 45 -27 14 -81 45 -120 70 -38 24 -101 61 -140 81 -38 20 -95 51 -126 70
-31 19 -60 34 -65 34 -4 0 -38 19 -76 41 -43 26 -68 48 -68 59 0 10 37 61 81
114 78 91 86 97 193 150 61 30 153 69 203 86 51 17 113 39 139 50 72 31 183
67 259 84 39 8 106 27 150 41 80 26 266 68 380 85 33 5 101 16 150 25 50 9
113 20 140 25 28 5 284 7 570 5 430 -2 535 -6 605 -19z m1180 -335 c3 -3 85
-46 183 -95 98 -50 181 -94 183 -98 3 -4 14 -8 24 -8 10 0 31 -11 47 -24 15
-13 38 -26 51 -30 12 -4 36 -19 52 -33 17 -13 30 -22 30 -19 0 3 21 -10 46
-29 25 -19 50 -35 55 -35 6 0 25 -11 42 -24 18 -13 55 -36 82 -51 28 -15 82
-53 120 -85 39 -31 89 -69 113 -84 23 -15 48 -37 53 -50 6 -13 30 -33 53 -44
22 -12 73 -48 111 -82 96 -83 102 -89 144 -140 38 -47 59 -68 194 -193 97 -90
137 -157 137 -227 0 -25 -4 -51 -8 -57 -6 -10 -80 -13 -302 -13 -270 -1 -295
1 -310 17 -10 10 -142 169 -296 353 -153 184 -299 360 -325 390 -26 30 -127
152 -225 270 -98 118 -208 249 -245 292 -37 42 -72 85 -77 95 -10 17 -7 18 26
15 20 -3 39 -7 42 -11z m-4239 -600 c13 -10 34 -21 46 -25 12 -4 34 -17 49
-29 15 -12 66 -41 113 -65 47 -24 93 -50 101 -57 8 -7 34 -21 58 -30 23 -10
49 -26 56 -37 7 -10 22 -20 33 -22 39 -8 89 -34 113 -59 14 -15 39 -29 57 -33
18 -3 37 -12 44 -20 6 -8 18 -14 26 -14 8 0 56 -25 107 -55 50 -30 97 -55 104
-55 47 0 -35 -64 -148 -115 -19 -9 -37 -19 -40 -23 -3 -4 -25 -18 -50 -31 -67
-36 -142 -87 -168 -113 -15 -14 -33 -22 -48 -20 -16 2 -24 -1 -24 -12 0 -15
-91 -107 -113 -115 -7 -2 -28 -19 -47 -38 -19 -18 -43 -33 -52 -33 -18 0 -49
59 -103 195 -15 39 -40 96 -56 127 -16 32 -36 79 -45 105 -9 27 -22 62 -29 78
-7 17 -25 66 -41 110 -15 44 -37 98 -50 120 -12 22 -27 63 -34 91 -10 46 -9
56 9 91 19 38 82 103 100 103 5 0 19 -8 32 -19z m-668 -181 c-4 -14 0 -20 11
-20 12 0 6 -14 -22 -55 -20 -30 -43 -55 -50 -55 -7 0 -32 -30 -56 -67 -24 -38
-60 -84 -80 -103 -21 -19 -44 -48 -52 -63 -9 -16 -42 -56 -75 -88 -32 -33 -59
-64 -59 -69 0 -5 -28 -42 -61 -82 -34 -40 -69 -84 -77 -97 -9 -13 -42 -49 -73
-80 -30 -31 -71 -80 -89 -108 -35 -56 -41 -60 -58 -40 -14 16 -9 130 6 135 7
2 10 7 7 12 -6 10 97 165 144 215 21 22 52 61 69 86 17 25 82 95 143 155 145
140 178 174 209 210 39 47 140 134 155 134 8 0 11 -7 8 -20z m282 -264 c1 -1
11 -26 23 -56 12 -31 22 -62 22 -71 0 -8 7 -24 15 -35 8 -10 15 -26 15 -34 0
-8 18 -51 40 -95 22 -44 43 -98 47 -120 6 -38 17 -66 84 -198 16 -32 29 -64
29 -70 0 -7 11 -34 25 -62 13 -27 25 -53 25 -57 0 -4 -19 -26 -41 -48 l-41
-41 -44 43 c-24 24 -44 48 -44 53 0 10 -12 23 -65 73 -11 10 -30 29 -41 43
-12 13 -39 40 -60 61 -22 20 -55 61 -74 91 -19 30 -47 63 -62 73 -15 10 -30
25 -33 34 -14 37 -30 57 -61 80 -48 36 -45 64 15 119 27 25 58 64 70 86 23 42
61 98 88 127 11 12 24 16 42 11 14 -3 26 -6 26 -7z m3145 -188 c0 -5 7 -8 15
-5 8 4 17 2 21 -4 3 -6 19 -7 35 -4 18 4 36 2 44 -5 8 -7 26 -9 40 -6 14 4 25
2 25 -3 0 -5 30 -14 68 -21 95 -16 257 -55 332 -80 36 -11 81 -25 100 -31 39
-11 94 -33 157 -60 24 -11 47 -19 53 -19 6 0 29 -12 53 -27 23 -14 48 -26 54
-26 7 0 13 -3 13 -6 0 -4 24 -17 53 -30 28 -14 72 -38 97 -55 25 -17 63 -40
85 -51 60 -30 195 -128 233 -169 19 -20 39 -36 46 -36 7 0 26 -13 42 -30 16
-16 34 -30 41 -30 7 0 24 -16 39 -35 14 -19 30 -35 34 -35 4 0 22 -13 40 -30
18 -16 38 -30 45 -30 8 0 17 -9 20 -20 3 -11 13 -20 21 -20 8 0 14 -5 14 -11
0 -6 9 -18 20 -27 22 -18 58 -63 172 -212 39 -52 77 -99 83 -105 7 -5 27 -31
45 -57 18 -27 36 -48 40 -48 3 0 17 -19 30 -42 13 -24 33 -56 45 -73 12 -16
30 -50 39 -74 10 -25 28 -58 42 -74 13 -16 24 -33 24 -38 0 -6 22 -57 49 -114
27 -56 55 -122 61 -146 7 -24 17 -50 22 -56 12 -15 77 -227 80 -260 1 -7 6
-13 11 -13 5 0 7 -7 3 -15 -3 -8 -2 -15 3 -15 4 0 15 -39 25 -87 9 -49 20 -99
24 -113 11 -36 4 -57 -21 -64 -12 -3 -453 -5 -978 -6 -787 0 -958 2 -967 13
-8 10 -12 221 -14 723 -2 437 -7 715 -13 724 -5 8 -10 20 -11 27 -4 28 -69 93
-97 97 -7 1 -18 5 -24 9 -7 5 -17 6 -22 3 -5 -4 -11 -1 -13 4 -4 13 -1352 20
-1409 7 -38 -8 -146 -97 -133 -110 4 -4 2 -7 -4 -7 -30 0 -35 -113 -31 -800
l4 -684 -43 -8 c-24 -4 -526 -6 -1115 -5 l-1072 2 -3 30 c-5 45 53 323 70 335
4 4 22 55 39 115 17 61 35 112 40 113 5 2 9 9 9 15 0 15 151 313 201 397 21
36 41 73 45 83 3 9 9 17 13 17 4 0 12 15 19 34 7 18 29 51 50 73 67 72 126
144 160 194 18 27 38 49 43 49 5 0 9 7 9 15 0 8 4 15 10 15 5 0 22 19 39 43
36 52 155 177 168 177 6 0 32 22 59 50 27 27 53 50 58 50 12 0 97 69 187 153
10 9 24 17 29 17 6 0 10 6 10 14 0 7 8 16 18 20 18 6 52 26 117 67 94 62 200
124 210 124 6 0 33 14 60 32 135 86 548 220 762 248 29 4 55 11 58 15 3 5 17
7 30 4 14 -2 25 0 25 5 0 6 15 7 35 4 20 -3 35 -1 35 4 0 6 11 9 25 8 14 -2
28 1 31 6 8 14 664 11 664 -3z m-3595 -382 c9 -13 24 -26 34 -29 9 -2 27 -25
39 -50 12 -25 40 -65 62 -88 22 -23 40 -45 40 -49 0 -4 13 -13 30 -20 16 -7
32 -20 35 -29 3 -9 20 -31 37 -50 18 -19 47 -55 63 -80 17 -25 49 -60 73 -78
24 -18 40 -33 36 -33 -4 0 5 -12 20 -26 14 -15 26 -34 26 -42 0 -14 -72 -115
-132 -184 -13 -15 -32 -44 -43 -65 -10 -21 -28 -51 -39 -68 -11 -16 -32 -55
-47 -85 -14 -31 -38 -75 -53 -98 -14 -23 -26 -48 -26 -57 0 -8 -18 -50 -40
-93 -61 -119 -107 -222 -123 -277 -8 -27 -23 -68 -32 -90 -10 -22 -18 -47 -19
-55 -1 -8 -7 -26 -14 -40 -6 -14 -21 -72 -32 -130 -12 -57 -25 -109 -30 -115
-15 -18 -64 -356 -62 -425 3 -83 18 -139 40 -147 9 -3 27 -15 40 -26 12 -11
22 -16 22 -11 0 5 5 2 10 -6 8 -13 165 -15 1292 -18 705 -1 1286 -6 1290 -10
4 -4 7 -113 7 -242 0 -129 2 -377 3 -550 5 -582 3 -1221 -6 -1762 -7 -428 -7
-545 4 -582 7 -25 17 -46 23 -46 6 0 8 -2 6 -4 -13 -13 -381 94 -424 124 -5 3
-29 12 -52 20 -24 7 -43 17 -43 22 0 4 -8 8 -19 8 -10 0 -24 7 -31 15 -7 8
-16 12 -21 9 -5 -3 -9 0 -9 6 0 6 -4 9 -9 5 -5 -3 -15 1 -23 8 -7 7 -49 33
-93 56 -44 24 -87 49 -95 56 -8 6 -30 18 -47 26 -18 8 -33 17 -33 21 0 5 -4 8
-9 8 -6 0 -31 15 -56 33 -26 17 -55 37 -66 43 -10 6 -28 23 -40 38 -12 15 -23
25 -25 23 -3 -2 -26 15 -52 39 -26 24 -58 49 -71 56 -14 7 -43 32 -64 56 -22
23 -45 42 -51 42 -19 0 -235 220 -217 220 3 0 -3 8 -15 18 -12 9 -37 42 -57
72 -20 30 -49 69 -64 85 -16 17 -46 53 -68 80 -22 28 -47 58 -57 68 -10 10
-18 24 -18 31 0 8 -16 31 -35 52 -19 22 -37 51 -40 66 -3 14 -22 48 -41 75
-19 26 -34 52 -34 57 0 4 -24 58 -54 120 -30 61 -59 130 -65 153 -6 23 -16 45
-21 48 -5 3 -14 25 -20 48 -27 106 -55 202 -61 207 -14 10 -51 219 -58 325 -7
100 -11 115 -39 159 -18 28 -32 63 -32 78 0 20 -5 28 -17 28 -19 0 -80 20 -99
32 -5 4 -59 2 -120 -4 -60 -5 -210 -8 -333 -6 -173 3 -233 1 -260 -9 -20 -8
-44 -16 -53 -19 -9 -3 -24 -22 -33 -41 -15 -31 -17 -127 -16 -1066 0 -568 -3
-1042 -6 -1054 -8 -33 -20 -28 -43 15 -11 20 -39 66 -61 102 -23 36 -77 139
-121 230 -43 91 -92 190 -107 220 -16 30 -36 80 -46 110 -10 30 -26 74 -36 97
-19 43 -68 170 -72 188 -2 6 -6 15 -10 21 -3 6 -16 50 -27 98 -11 48 -27 102
-35 122 -8 19 -19 61 -25 94 -6 33 -22 95 -36 137 -13 43 -26 89 -29 103 -2
14 -22 147 -44 295 -39 257 -41 281 -41 505 0 130 5 242 10 250 8 13 62 16
347 21 302 5 344 8 393 25 30 11 54 25 52 32 -1 7 2 12 8 12 5 0 22 19 37 42
l28 42 3 925 3 926 50 51 c27 27 46 53 42 58 -4 4 8 22 27 40 56 53 100 103
100 115 0 6 5 11 10 11 6 0 13 7 17 16 6 16 56 75 106 125 15 15 27 32 27 38
0 6 16 28 36 48 20 21 43 48 51 61 8 12 22 22 29 22 8 0 14 6 14 13 0 40 52
49 75 13z m6086 -156 c31 -9 43 -19 60 -52 11 -22 29 -43 40 -45 10 -3 24 -20
31 -39 7 -19 15 -34 19 -34 15 0 71 -57 83 -85 13 -29 29 -47 112 -123 23 -20
45 -50 51 -67 5 -16 19 -34 31 -40 12 -5 22 -13 22 -16 0 -4 20 -31 44 -60 24
-30 47 -64 50 -76 4 -13 13 -23 20 -23 14 0 59 -45 75 -77 6 -13 19 -23 27
-23 8 0 22 -16 30 -35 12 -29 14 -129 14 -605 l0 -570 -26 -10 c-24 -10 -35
-7 -71 18 -7 4 -19 52 -28 107 -9 55 -20 104 -24 110 -5 5 -23 71 -41 145 -18
74 -38 144 -46 156 -7 12 -20 48 -29 80 -23 82 -45 144 -53 144 -4 0 -13 15
-21 33 -16 37 -125 260 -146 297 -28 51 -55 111 -55 123 0 7 -12 26 -26 42
-15 17 -36 50 -47 75 -11 25 -40 65 -65 90 -24 25 -47 52 -51 61 -7 18 -46 68
-136 174 -33 38 -76 92 -95 119 -19 28 -67 83 -106 123 -44 46 -67 76 -60 81
13 8 272 21 335 16 24 -2 61 -9 82 -14z m699 0 c12 -7 15 -31 14 -132 -2 -173
-2 -178 -17 -178 -8 0 -31 22 -53 50 -21 27 -47 52 -56 55 -10 4 -36 35 -59
71 -23 35 -46 64 -50 64 -5 0 -9 6 -9 14 0 8 -7 16 -15 20 -8 3 -15 17 -15 32
l0 26 123 -7 c67 -4 129 -11 137 -15z m420 -64 c0 -5 7 -17 16 -27 33 -37 43
-125 44 -379 0 -295 -6 -380 -28 -380 -24 0 -109 98 -116 132 -3 17 -6 175 -6
352 0 279 2 325 16 344 l16 23 29 -28 c16 -15 29 -32 29 -37z m-8115 -448 c4
-79 5 -465 3 -859 -2 -588 -5 -719 -17 -732 -12 -15 -42 -17 -248 -17 -148 0
-242 4 -254 11 -19 10 -20 17 -14 87 4 42 15 127 25 187 10 61 21 137 25 170
4 33 13 78 20 100 17 54 51 187 66 260 7 33 15 65 19 70 4 6 19 55 34 110 15
55 36 118 46 140 34 72 72 169 87 220 14 46 38 100 141 317 21 42 42 77 48 77
8 1 14 -44 19 -141z m8555 -528 c20 -41 50 -130 50 -149 0 -7 6 -27 14 -44 23
-51 35 -107 30 -136 -4 -18 0 -32 10 -40 16 -14 22 -51 9 -51 -9 0 -73 68
-119 126 -39 50 -58 140 -48 232 3 37 9 71 11 75 7 12 35 4 43 -13z m-402
-297 c17 -31 17 -624 0 -641 -16 -16 -93 -15 -107 1 -8 11 -16 464 -11 695 0
7 10 16 22 21 18 7 29 2 54 -23 17 -17 36 -41 42 -53z m415 -479 c49 -86 86
-158 83 -161 -3 -3 -46 -8 -96 -11 l-90 -5 0 167 c0 91 3 166 8 166 4 0 47
-71 95 -156z m-1372 -611 c7 -7 11 -120 12 -344 1 -321 0 -337 -22 -409 -12
-41 -26 -84 -31 -95 -5 -11 -21 -69 -36 -130 -15 -60 -32 -113 -38 -117 -6 -4
-7 -8 -2 -8 5 0 4 -6 -2 -13 -7 -7 -20 -50 -31 -94 -10 -44 -25 -91 -32 -104
-7 -13 -14 -26 -15 -29 -1 -3 -5 -16 -10 -30 -4 -13 -26 -63 -49 -110 -24 -47
-55 -114 -71 -150 -16 -36 -34 -69 -40 -75 -7 -5 -17 -27 -24 -48 -7 -21 -18
-41 -26 -44 -8 -3 -14 -11 -14 -19 0 -8 -7 -22 -16 -31 -8 -10 -25 -32 -37
-50 -57 -83 -109 -151 -141 -187 -20 -22 -36 -43 -36 -47 0 -4 -18 -29 -41
-56 -22 -26 -59 -70 -82 -97 -57 -67 -199 -206 -212 -206 -5 0 -34 -23 -63
-50 -29 -28 -56 -50 -61 -50 -4 0 -36 -27 -71 -59 -35 -33 -75 -65 -89 -72
-14 -7 -42 -26 -62 -41 -20 -15 -41 -28 -47 -28 -6 0 -12 -3 -14 -7 -1 -5 -61
-37 -133 -73 -71 -36 -133 -69 -137 -75 -4 -5 -8 -7 -8 -3 0 4 -24 -8 -54 -27
-30 -19 -74 -42 -98 -51 -23 -9 -62 -25 -86 -36 -24 -10 -57 -21 -73 -25 l-29
-5 -1 233 c-1 129 -3 252 -5 274 -9 111 -14 1589 -7 2055 l8 535 90 5 c188 10
1925 4 1936 -7z m1357 -916 c15 -10 -15 -66 -64 -120 -17 -18 -35 -40 -40 -49
-5 -8 -31 -41 -58 -72 -28 -32 -58 -69 -68 -84 -22 -34 -85 -124 -96 -137 -4
-5 -19 -25 -32 -44 -14 -19 -39 -48 -57 -65 -17 -17 -51 -61 -75 -97 -60 -90
-84 -119 -97 -119 -6 0 -11 -7 -11 -15 0 -14 -76 -115 -105 -140 -6 -5 -34
-41 -60 -80 -27 -38 -54 -74 -61 -80 -17 -15 -94 -123 -94 -132 0 -5 -6 -8
-12 -8 -10 0 -13 129 -14 610 -1 366 2 617 8 628 9 17 34 18 466 15 251 -2
463 -7 470 -11z m-7965 -409 c18 -35 72 -123 118 -196 46 -74 90 -146 98 -160
8 -15 29 -48 47 -73 19 -26 34 -49 34 -53 0 -3 52 -90 117 -193 64 -104 157
-253 206 -333 49 -80 118 -190 152 -245 34 -55 98 -158 142 -230 130 -211 413
-667 437 -705 13 -19 70 -111 128 -205 58 -93 198 -320 311 -502 128 -205 204
-338 201 -348 -9 -23 -63 -18 -116 10 -26 14 -55 25 -65 25 -69 0 -523 220
-741 360 -225 144 -662 479 -662 508 0 6 -9 12 -20 12 -11 0 -20 4 -20 9 0 14
-204 221 -218 221 -6 0 -12 9 -12 19 0 11 -9 22 -19 26 -11 3 -32 22 -47 43
-15 20 -32 42 -38 47 -6 6 -30 33 -54 61 l-42 52 0 956 c0 815 2 956 14 956 8
0 30 -28 49 -62z m8040 -120 c-6 -29 -21 -89 -33 -133 -12 -44 -27 -100 -32
-123 -6 -24 -17 -46 -25 -49 -7 -3 -13 -19 -13 -37 0 -17 -6 -41 -14 -52 -8
-11 -22 -47 -31 -79 -10 -33 -21 -62 -24 -65 -4 -3 -16 -23 -27 -45 -12 -22
-30 -58 -42 -80 -48 -91 -131 -273 -141 -312 -6 -23 -24 -52 -39 -65 -15 -13
-33 -36 -41 -51 -8 -15 -18 -27 -23 -27 -5 0 -6 -4 -3 -10 3 -5 1 -10 -4 -10
-6 0 -11 -7 -11 -15 0 -8 -8 -23 -18 -33 -11 -11 -24 -34 -31 -53 -6 -18 -22
-45 -35 -59 -13 -14 -26 -37 -30 -52 -3 -16 -11 -28 -17 -28 -15 0 -48 -42
-49 -62 0 -10 -8 -22 -19 -27 -10 -6 -28 -33 -40 -61 -12 -27 -28 -50 -35 -50
-8 0 -31 -26 -52 -57 -20 -32 -57 -76 -80 -98 -24 -22 -50 -57 -59 -78 -37
-90 -44 -35 -56 449 l-4 141 505 651 c434 559 507 649 519 637 12 -12 12 -24
4 -67z m-1353 -732 l0 -413 -35 -44 c-19 -24 -35 -49 -35 -55 0 -6 -18 -31
-40 -55 -22 -24 -40 -50 -40 -57 0 -6 -11 -22 -25 -34 -13 -11 -36 -38 -51
-60 -15 -21 -32 -38 -38 -38 -6 0 -24 -23 -39 -51 -16 -28 -35 -53 -42 -56 -8
-2 -12 -10 -9 -17 2 -6 -11 -29 -31 -50 -19 -21 -35 -42 -35 -47 0 -5 -4 -9
-8 -9 -5 0 -21 -18 -38 -41 -16 -22 -46 -60 -66 -85 -20 -24 -39 -52 -43 -63
-3 -10 -17 -26 -30 -35 -14 -9 -25 -23 -25 -31 0 -7 -8 -20 -17 -27 -10 -7
-24 -22 -31 -33 -39 -61 -52 -79 -53 -70 0 6 -4 0 -9 -13 -5 -12 -15 -22 -22
-22 -8 0 -19 -12 -25 -27 -15 -35 -31 -58 -63 -92 -14 -15 -42 -47 -63 -71
l-37 -44 -1898 -1 c-1877 0 -1897 0 -1938 20 -26 12 -46 31 -54 50 -7 17 -18
37 -25 45 -7 8 -28 44 -47 80 -46 88 -60 110 -80 134 -10 11 -18 24 -18 28 0
5 -20 38 -45 75 -25 36 -45 71 -45 77 0 7 -9 22 -20 33 -32 35 -80 119 -80
140 0 12 -8 23 -18 25 -10 3 -28 26 -40 52 -12 25 -38 68 -57 95 -37 52 -70
120 -61 129 3 2 31 -17 62 -44 31 -27 68 -58 83 -68 51 -38 91 -80 91 -98 0
-12 8 -18 24 -18 24 0 82 -37 168 -107 22 -18 45 -33 51 -33 7 0 39 -16 72
-36 85 -52 264 -144 280 -144 7 0 39 -16 71 -35 32 -19 63 -35 70 -35 7 0 42
-14 80 -30 136 -62 481 -153 714 -189 121 -19 179 -21 525 -21 301 0 401 3
444 14 31 8 112 24 181 36 208 37 475 112 567 159 23 11 48 21 56 21 7 0 36
11 63 25 27 14 79 39 117 56 37 16 84 41 104 54 20 14 42 25 50 25 8 0 33 13
56 29 23 15 62 39 87 51 25 13 63 38 86 56 23 19 47 34 54 34 14 0 111 75 180
140 25 23 65 56 90 73 25 17 51 39 58 49 7 10 39 37 70 60 81 59 322 310 322
335 0 6 10 18 21 29 12 10 35 37 50 58 16 21 56 68 89 104 34 36 59 71 56 78
-3 8 6 21 19 30 14 9 25 22 25 29 0 7 6 15 14 18 7 3 30 35 50 71 20 36 40 68
45 71 10 5 35 57 71 143 13 28 26 52 31 52 5 0 9 7 9 15 0 8 5 15 10 15 7 0
10 -145 10 -414z m5 -1158 c-4 -161 -11 -303 -16 -315 -14 -36 -99 -114 -153
-139 -46 -22 -65 -24 -197 -24 -153 0 -209 6 -209 22 0 8 98 136 507 666 35
45 67 82 70 82 3 0 2 -132 -2 -292z m-2487 -828 c1376 -1 1293 3 1233 -57 -15
-16 -31 -38 -35 -50 -4 -12 -18 -28 -31 -37 -13 -9 -43 -43 -65 -76 -22 -33
-45 -60 -50 -60 -6 0 -10 -5 -10 -10 0 -21 -53 -90 -74 -96 -11 -4 -37 -17
-56 -30 -19 -13 -40 -24 -47 -24 -7 0 -32 -9 -56 -19 -39 -19 -105 -40 -187
-61 -83 -22 -207 -52 -230 -57 -14 -2 -56 -12 -95 -22 -38 -10 -115 -26 -170
-35 -368 -59 -327 -56 -761 -56 -348 0 -431 3 -559 20 -82 11 -190 25 -240 31
-49 6 -96 16 -103 22 -7 6 -35 12 -61 14 -60 3 -110 24 -156 64 -35 31 -75 98
-75 126 0 7 -5 13 -10 13 -6 0 -19 15 -30 33 -11 17 -24 39 -30 47 -30 44 -80
122 -80 126 0 3 -22 39 -50 82 -53 82 -58 96 -36 109 8 4 192 7 408 6 216 -2
961 -3 1656 -3z"/>
</g>
</svg>
